<svg width="55" height="55" viewBox="0 0 55 55" fill="none" xmlns="http://www.w3.org/2000/svg">
<path d="M54.6325 48.5622C54.6325 51.9145 51.9145 54.6325 48.5622 54.6325H6.07028C2.71797 54.6325 0 51.9145 0 48.5622V6.07028C0 2.71797 2.71797 0 6.07028 0H48.5622C51.9145 0 54.6325 2.71797 54.6325 6.07028V48.5622Z" fill="#3B88C3"/>
<path d="M13.7444 14.1316C13.7444 11.9661 15.2498 10.5077 17.3668 10.5077H25.1777C35.7188 10.5077 41.742 17.2836 41.742 27.7291C41.742 37.61 35.3424 44.0095 25.6482 44.0095H17.4609C15.9084 44.0095 13.7444 43.1612 13.7444 40.4812V14.1316ZM20.8026 37.5159H25.5556C31.6259 37.5159 34.4015 33.0466 34.4015 27.3998C34.4015 21.3765 31.5804 17.0014 25.0852 17.0014H20.8026V37.5159Z" fill="white"/>
</svg>
