<svg width="349" height="93" viewBox="0 0 349 93" fill="none" xmlns="http://www.w3.org/2000/svg">
<path d="M22 72H0.454546V2.18182H22.9545C29.7273 2.18182 35.5227 3.57954 40.3409 6.375C45.1591 9.14772 48.8523 13.1364 51.4205 18.3409C53.9886 23.5227 55.2727 29.7273 55.2727 36.9545C55.2727 44.2273 53.9773 50.4886 51.3864 55.7386C48.7955 60.9659 45.0227 64.9886 40.0682 67.8068C35.1136 70.6023 29.0909 72 22 72ZM8.90909 64.5H21.4545C27.2273 64.5 32.0114 63.3864 35.8068 61.1591C39.6023 58.9318 42.4318 55.7614 44.2955 51.6477C46.1591 47.5341 47.0909 42.6364 47.0909 36.9545C47.0909 31.3182 46.1705 26.4659 44.3295 22.3977C42.4886 18.3068 39.7386 15.1705 36.0795 12.9886C32.4205 10.7841 27.8636 9.68182 22.4091 9.68182H8.90909V64.5ZM68.3636 72V19.6364H76.4091V72H68.3636ZM72.4545 10.9091C70.8864 10.9091 69.5341 10.375 68.3977 9.30682C67.2841 8.23864 66.7273 6.95455 66.7273 5.45455C66.7273 3.95455 67.2841 2.67045 68.3977 1.60227C69.5341 0.53409 70.8864 0 72.4545 0C74.0227 0 75.3636 0.53409 76.4773 1.60227C77.6136 2.67045 78.1818 3.95455 78.1818 5.45455C78.1818 6.95455 77.6136 8.23864 76.4773 9.30682C75.3636 10.375 74.0227 10.9091 72.4545 10.9091ZM112.281 92.7273C108.395 92.7273 105.054 92.2273 102.259 91.2273C99.4631 90.25 97.1335 88.9545 95.2699 87.3409C93.429 85.75 91.9631 84.0455 90.8722 82.2273L97.2812 77.7273C98.0085 78.6818 98.929 79.7727 100.043 81C101.156 82.25 102.679 83.3295 104.611 84.2386C106.565 85.1705 109.122 85.6364 112.281 85.6364C116.509 85.6364 119.997 84.6136 122.747 82.5682C125.497 80.5227 126.872 77.3182 126.872 72.9545V62.3182H126.19C125.599 63.2727 124.759 64.4545 123.668 65.8636C122.599 67.25 121.054 68.4886 119.031 69.5795C117.031 70.6477 114.327 71.1818 110.918 71.1818C106.69 71.1818 102.895 70.1818 99.5312 68.1818C96.1903 66.1818 93.5426 63.2727 91.5881 59.4545C89.6563 55.6364 88.6903 51 88.6903 45.5455C88.6903 40.1818 89.6335 35.5114 91.5199 31.5341C93.4063 27.5341 96.0313 24.4432 99.3949 22.2614C102.759 20.0568 106.645 18.9545 111.054 18.9545C114.463 18.9545 117.168 19.5227 119.168 20.6591C121.19 21.7727 122.736 23.0455 123.804 24.4773C124.895 25.8864 125.736 27.0455 126.327 27.9545H127.145V19.6364H134.918V73.5C134.918 78 133.895 81.6591 131.849 84.4773C129.827 87.3182 127.099 89.3977 123.668 90.7159C120.259 92.0568 116.463 92.7273 112.281 92.7273ZM112.009 63.9545C115.236 63.9545 117.963 63.2159 120.19 61.7386C122.418 60.2614 124.111 58.1364 125.27 55.3636C126.429 52.5909 127.009 49.2727 127.009 45.4091C127.009 41.6364 126.44 38.3068 125.304 35.4205C124.168 32.5341 122.486 30.2727 120.259 28.6364C118.031 27 115.281 26.1818 112.009 26.1818C108.599 26.1818 105.759 27.0455 103.486 28.7727C101.236 30.5 99.5426 32.8182 98.4062 35.7273C97.2926 38.6364 96.7358 41.8636 96.7358 45.4091C96.7358 49.0455 97.304 52.2614 98.4403 55.0568C99.5994 57.8295 101.304 60.0114 103.554 61.6023C105.827 63.1705 108.645 63.9545 112.009 63.9545ZM149.645 72V19.6364H157.69V72H149.645ZM153.736 10.9091C152.168 10.9091 150.815 10.375 149.679 9.30682C148.565 8.23864 148.009 6.95455 148.009 5.45455C148.009 3.95455 148.565 2.67045 149.679 1.60227C150.815 0.53409 152.168 0 153.736 0C155.304 0 156.645 0.53409 157.759 1.60227C158.895 2.67045 159.463 3.95455 159.463 5.45455C159.463 6.95455 158.895 8.23864 157.759 9.30682C156.645 10.375 155.304 10.9091 153.736 10.9091Z" fill="black"/>
<path d="M173.517 72V2.18182H181.972V64.5H214.426V72H173.517ZM226.426 72V19.6364H234.472V72H226.426ZM230.517 10.9091C228.949 10.9091 227.597 10.375 226.46 9.30682C225.347 8.23864 224.79 6.95455 224.79 5.45455C224.79 3.95455 225.347 2.67045 226.46 1.60227C227.597 0.53409 228.949 0 230.517 0C232.085 0 233.426 0.53409 234.54 1.60227C235.676 2.67045 236.244 3.95455 236.244 5.45455C236.244 6.95455 235.676 8.23864 234.54 9.30682C233.426 10.375 232.085 10.9091 230.517 10.9091ZM257.253 40.5V72H249.207V19.6364H256.98V27.8182H257.662C258.889 25.1591 260.753 23.0227 263.253 21.4091C265.753 19.7727 268.98 18.9545 272.935 18.9545C276.48 18.9545 279.582 19.6818 282.241 21.1364C284.901 22.5682 286.969 24.75 288.446 27.6818C289.923 30.5909 290.662 34.2727 290.662 38.7273V72H282.616V39.2727C282.616 35.1591 281.548 31.9545 279.412 29.6591C277.276 27.3409 274.344 26.1818 270.616 26.1818C268.048 26.1818 265.753 26.7386 263.73 27.8523C261.73 28.9659 260.151 30.5909 258.991 32.7273C257.832 34.8636 257.253 37.4545 257.253 40.5ZM327.318 73.0909C322.273 73.0909 317.92 71.9773 314.261 69.75C310.625 67.5 307.818 64.3636 305.841 60.3409C303.886 56.2955 302.909 51.5909 302.909 46.2273C302.909 40.8636 303.886 36.1364 305.841 32.0455C307.818 27.9318 310.568 24.7273 314.091 22.4318C317.636 20.1136 321.773 18.9545 326.5 18.9545C329.227 18.9545 331.92 19.4091 334.58 20.3182C337.239 21.2273 339.659 22.7045 341.841 24.75C344.023 26.7727 345.761 29.4545 347.057 32.7955C348.352 36.1364 349 40.25 349 45.1364V48.5455H308.636V41.5909H340.818C340.818 38.6364 340.227 36 339.045 33.6818C337.886 31.3636 336.227 29.5341 334.068 28.1932C331.932 26.8523 329.409 26.1818 326.5 26.1818C323.295 26.1818 320.523 26.9773 318.182 28.5682C315.864 30.1364 314.08 32.1818 312.83 34.7045C311.58 37.2273 310.955 39.9318 310.955 42.8182V47.4545C310.955 51.4091 311.636 54.7614 313 57.5114C314.386 60.2386 316.307 62.3182 318.761 63.75C321.216 65.1591 324.068 65.8636 327.318 65.8636C329.432 65.8636 331.341 65.5682 333.045 64.9773C334.773 64.3636 336.261 63.4545 337.511 62.25C338.761 61.0227 339.727 59.5 340.409 57.6818L348.182 59.8636C347.364 62.5 345.989 64.8182 344.057 66.8182C342.125 68.7955 339.739 70.3409 336.898 71.4545C334.057 72.5455 330.864 73.0909 327.318 73.0909Z" fill="#003D79"/>
</svg>
